<?xml version="1.0" encoding="UTF-8"?>
<svg width="40px" height="40px" viewBox="0 0 40 40" version="1.1" xmlns="http://www.w3.org/2000/svg" xmlns:xlink="http://www.w3.org/1999/xlink">
    <!-- Generator: Sketch 42 (36781) - http://www.bohemiancoding.com/sketch -->
    <title>审批节点</title>
    <desc>Created with Sketch.</desc>
    <defs></defs>
    <g id="流程设计" stroke="none" stroke-width="1" fill="none" fill-rule="evenodd">
        <path d="M29.5292257,24.5261713 L25.1301728,24.5261713 C25.0161912,24.4003696 24.5505324,23.9278463 24.436738,23.8024281 C24.2411538,23.5579203 24.1943633,23.4104484 24.0073886,23.1521331 C23.7917781,22.8541212 23.6006858,22.5279189 23.4588171,22.1568423 C23.1498129,21.3487199 23.397428,20.4972573 23.6734918,19.8613452 C24.2486403,18.5367838 25.1949308,17.619352 25.7245989,16.2336158 C25.8571095,15.8868941 25.9263594,15.4989417 26.0029087,15.1017842 C26.074966,14.7276393 26.1114626,14.200653 26.0506349,13.785469 C26.0034701,13.4642528 26.007962,13.1802402 25.9392736,12.8946934 C25.644868,11.6694694 25.1382207,10.7813785 24.436738,9.98111874 C23.8028207,9.25833438 22.9854847,8.723869 22.0116814,8.34377916 C20.7590069,7.85495525 18.9553278,7.90213088 17.7501925,8.39191365 C15.9523154,9.12256061 14.6659518,10.4250683 14.0690925,12.3650223 C13.8611557,13.0408228 13.6882181,14.0432091 13.8385091,14.9334094 C13.9047644,15.3263479 13.9697095,15.6933973 14.0771405,16.0410779 C14.5617026,17.6103388 15.6421881,18.6508875 16.422466,19.9418889 C16.8022175,20.5699385 17.1130934,21.438277 16.7406413,22.3175463 C16.4900315,22.9087759 16.2542725,23.3978271 15.9268799,23.8024281 C15.5994873,24.207029 15.2320557,24.5142815 14.8656535,24.5263631 C13.5485953,24.5263631 10.9315107,24.5142815 10.4218689,24.5142815 C9.91222703,24.5142815 9.20194768,25.1898903 9.0840357,25.6775636 C8.99887705,26.0306137 9.06026615,27.8369034 9.06026615,28.2344444 C9.06026615,28.9622149 9.0840357,29.041748 9.0840357,29.041748 L30.9956391,29.0339372 C30.9956391,29.0337454 30.9881526,26.6927985 30.9881526,25.7912837 C30.9881526,24.8878511 30.3997157,24.5261713 29.5292257,24.5261713 Z M30.9956391,30.53627 L9,30.53627 C9,30.53627 9.00561486,31.4241691 9.45761081,31.7722332 C9.80030422,32.0363017 10.2616583,31.9971805 10.8646939,31.9971805 L13.5521514,31.9971805 L26.1857658,31.9971805 L29.1354371,31.9971805 C29.7787125,31.9971805 30.2769374,32.0439725 30.6379727,31.7563163 C31.0663863,31.4153477 30.9956391,30.53627 30.9956391,30.53627 L30.9956391,30.53627 Z" id="Shape-Copy" fill="#000000"></path>
    </g>
</svg>