<?xml version="1.0" encoding="UTF-8"?>
<svg width="40px" height="40px" viewBox="0 0 40 40" version="1.1" xmlns="http://www.w3.org/2000/svg" xmlns:xlink="http://www.w3.org/1999/xlink">
    <!-- Generator: Sketch 42 (36781) - http://www.bohemiancoding.com/sketch -->
    <title>会签节点</title>
    <desc>Created with Sketch.</desc>
    <defs></defs>
    <g id="流程设计" stroke="none" stroke-width="1" fill="none" fill-rule="evenodd">
        <path d="M15.6115431,9 L9.50990506,9 L9.50990506,13.1685698 L15.6115432,13.1685698 L15.6115431,9 Z M23.1477393,9.11592696 L17.1664513,9.11592696 L17.1664513,13.1685698 L23.1477393,13.1685698 L23.1477393,9.11592696 Z M30.56486,9.11592696 L24.5834612,9.11592696 L24.5834612,13.1685698 L30.56486,13.1685698 L30.56486,9.11592696 Z M14.0560807,14.9342702 L8,14.9342702 L8,23.5461262 L9.79438915,23.5461262 L9.79438915,30.9277133 L15.7756771,30.9277133 L15.7756771,25.2105447 L14.0560807,25.2105447 L14.0560807,14.9342702 Z M15.8504422,23.4013382 L17.4953012,23.4013382 L17.4953012,31 L23.1027916,31 L23.1027916,23.3289442 L24.6728856,23.3289442 L24.6728856,14.8618761 L15.925235,14.8618762 L15.8504422,23.4013382 Z M26.6915422,14.8618762 L26.6915422,25.3553059 L24.7476229,25.3553059 L24.7476229,30.7829521 L30.803759,30.7829521 L30.803759,23.4737322 L32,23.4737322 L32,14.8618762 L26.6915422,14.8618762 Z" id="Shape" fill="#000000"></path>
    </g>
</svg>