<?xml version="1.0" encoding="UTF-8" standalone="no"?>
<svg  width="22px" height="25px" viewBox="0 0 22 25" version="1.1" xmlns="http://www.w3.org/2000/svg" xmlns:xlink="http://www.w3.org/1999/xlink">
    <!-- Generator: Sketch 47.1 (45422) - http://www.bohemiancoding.com/sketch -->
    <title>子流程</title>
    <desc>Created with Sketch.</desc>
    <defs></defs>
    <g transform="scale(0.7)" id="Page-1" stroke="none" stroke-width="1" fill="none" fill-rule="evenodd">
        <g id="所有节点" transform="translate(-71.000000, -1020.000000)" fill="#000000">
            <path d="M89.0394165,1037 L80,1037 L80,1046 L89.0188032,1046 C89.2261372,1043.75568 91.1224163,1042 93.4285714,1042 C95.8731324,1042 97.8571429,1043.97274 97.8571429,1046.40909 C97.8571429,1048.84544 95.8731324,1050.81818 93.4285714,1050.81818 C91.1850714,1050.81818 89.3294784,1049.15661 89.0394165,1047 L79.5,1047 L78,1047 L78,1032 L80,1032 L80,1036 L89.0188032,1036 C89.2261372,1033.75568 91.1224163,1032 93.4285714,1032 C95.8731324,1032 97.8571429,1033.97274 97.8571429,1036.40909 C97.8571429,1038.84544 95.8731324,1040.81818 93.4285714,1040.81818 C91.1850714,1040.81818 89.3294784,1039.15661 89.0394165,1037 Z M77,1026 L81,1026 C81.5522847,1026 82,1026.44772 82,1027 L82,1031 C82,1031.55228 81.5522847,1032 81,1032 L77,1032 C76.4477153,1032 76,1031.55228 76,1031 L76,1027 L76,1027 C76,1026.44772 76.4477153,1026 77,1026 L77,1026 Z M93.4285714,1048.81818 C94.7711059,1048.81818 95.8571429,1047.73832 95.8571429,1046.40909 C95.8571429,1045.07987 94.7711059,1044 93.4285714,1044 C92.086037,1044 91,1045.07987 91,1046.40909 C91,1047.73832 92.086037,1048.81818 93.4285714,1048.81818 Z M93.4285714,1038.81818 C94.7711059,1038.81818 95.8571429,1037.73832 95.8571429,1036.40909 C95.8571429,1035.07987 94.7711059,1034 93.4285714,1034 C92.086037,1034 91,1035.07987 91,1036.40909 C91,1037.73832 92.086037,1038.81818 93.4285714,1038.81818 Z" id="子流程"></path>
        </g>
    </g>
</svg>