<?xml version="1.0" encoding="UTF-8" standalone="no"?>
<svg width="33px" height="30px" viewBox="0 0 33 30" version="1.1" xmlns="http://www.w3.org/2000/svg" xmlns:xlink="http://www.w3.org/1999/xlink">
    <!-- Generator: Sketch 47.1 (45422) - http://www.bohemiancoding.com/sketch -->
    <title>人工分支</title>
    <desc>Created with Sketch.</desc>
    <defs></defs>
    <g transform="scale(0.96)"  id="Page-1" stroke="none" stroke-width="1" fill="none" fill-rule="evenodd">
        <g id="所有节点" transform="translate(-71.000000, -922.000000)" fill-rule="nonzero" fill="#000000">
            <path d="M79.2500024,942.448446 L79.2500318,946.20593 C79.2500327,947.034255 78.5784618,947.705825 77.7500354,947.705927 L76.2500666,947.705925 C75.4216402,947.705851 74.7501117,947.034323 74.7500672,946.205926 L74.7500295,937.669686 C72.5512339,936.77945 71.0000608,934.624223 71,932.106183 C71.0000266,929.588202 72.5512828,927.432919 74.7500184,926.542805 L74.7500516,929.606233 C74.7500378,930.434688 75.4216537,931.106188 76.250051,931.106232 L77.7500781,931.106234 C78.5785482,931.106264 79.2501044,930.434707 79.2500745,929.606237 L79.2500122,926.542751 C80.3126279,926.972949 81.2240075,927.698611 81.8821551,928.617886 L88.5000415,922 L103.349284,936.849242 L88.5000415,951.698485 L79.2500024,942.448446 Z M82.3138703,929.317542 C82.7520813,930.150653 83.0000727,931.099425 83.0000854,932.106181 C83.0000296,934.624221 81.4488462,936.779459 79.249965,937.669574 L79.2499946,941.442435 L79.3126786,941.379751 L88.5000415,950.567114 L102.217913,936.849242 L88.5000415,923.131371 L82.3138703,929.317542 Z M91.2159145,932.307127 L93.1503138,932.307127 L89.4799401,936.849242 L93.1503138,941.391358 L91.2159145,941.391358 L88.4899484,937.960133 L85.7554983,941.40023 L83.8436564,941.385245 L87.5005557,936.849242 L83.8436564,932.313239 L85.7554983,932.298255 L88.4899484,935.738352 L91.2159145,932.307127 Z" id="人工分支"></path>
        </g>
    </g>
</svg>