<?xml version="1.0" encoding="UTF-8" standalone="no"?>
<svg width="21px" height="23px" viewBox="0 0 21 23" version="1.1" xmlns="http://www.w3.org/2000/svg" xmlns:xlink="http://www.w3.org/1999/xlink">
    <!-- Generator: Sketch 47.1 (45422) - http://www.bohemiancoding.com/sketch -->
    <title>传阅节点</title>
    <desc>Created with Sketch.</desc>
    <defs></defs>
    <g transform="scale(0.72)" id="Page-1" stroke="none" stroke-width="1" fill="none" fill-rule="evenodd">
        <g id="所有节点" transform="translate(-72.000000, -1120.000000)" fill="#00b0ff">
            <path d="M94.9679046,1140.03624 L92.4721277,1137.54394 L92.4721277,1140.98306 L85.9831077,1140.98306 L85.9831077,1145.96766 L92.4721277,1145.96766 L92.4721277,1146.92915 L76,1146.92915 L76,1129.98152 L81.9898646,1129.98152 L81.9898646,1124 L94.9679046,1124 L94.9679046,1140.03624 Z M94.9679046,1146.91448 L94.9679046,1146.92915 L94.9532108,1146.92915 L94.9679046,1146.91448 Z M81.9898646,1132.97228 L81.9898646,1133.9692 L88.97804,1133.9692 L88.97804,1132.97228 L81.9898646,1132.97228 Z M81.9898646,1135.96304 L81.9898646,1136.95995 L88.97804,1136.95995 L88.97804,1135.96304 L81.9898646,1135.96304 Z M80.9915538,1124 L80.9915538,1128.9846 L76,1128.9846 L80.9915538,1124 Z M93.4704384,1141.97998 L93.4704384,1139.95071 L97,1143.47536 L93.4704384,1147 L93.4704384,1144.97074 L86.9814184,1144.97074 L86.9814184,1141.97998 L93.4704384,1141.97998 Z" id="传阅节点"></path>
        </g>
    </g>
</svg>