<?xml version="1.0" encoding="UTF-8" standalone="no"?>
<svg width="30px" height="30px" viewBox="0 0 30 30" version="1.1" xmlns="http://www.w3.org/2000/svg" xmlns:xlink="http://www.w3.org/1999/xlink">
    <!-- Generator: Sketch 47.1 (45422) - http://www.bohemiancoding.com/sketch -->
    <title>并行汇聚</title>
    <desc>Created with Sketch.</desc>
    <defs></defs>
    <g transform="scale(0.9)" id="Page-1" stroke="none" stroke-width="1" fill="none" fill-rule="evenodd">
        <g id="所有节点" transform="translate(-70.000000, -664.000000)" fill-rule="nonzero" fill="#000000">
            <path d="M72.1313708,678.849242 L85.8492424,692.567114 L99.567114,678.849242 L85.8492424,665.131371 L72.1313708,678.849242 Z M85.8492424,664 L100.698485,678.849242 L85.8492424,693.698485 L71,678.849242 L85.8492424,664 Z M81.443631,684.314527 L81.443631,684.314527 C81.1231503,683.346318 81.0276161,681.872782 82.0549795,679.968665 L80.8302744,679.635511 L84.3861181,677.02704 L85.0594382,680.868586 C85.0594382,680.868586 84.3599056,680.555348 83.8917431,680.449279 C83.8917431,680.449279 81.9917229,683.496807 83.2365225,685.300547 C83.2102995,685.305207 83.1446256,685.325445 83.0582953,685.353977 C85.6464547,686.551908 88.8156633,686.083832 90.9497475,683.949747 C93.6834175,681.216077 93.6834175,676.783923 90.9497475,674.050253 C90.8156928,673.916198 90.6775537,673.788717 90.5357308,673.66781 C90.8786074,674.633809 91.0112062,676.13785 89.9534207,678.098351 L91.1781258,678.431506 L87.6222822,681.039976 L86.9489621,677.198431 C86.9489621,677.198431 87.6484946,677.511669 88.1166572,677.617737 C88.1166572,677.617737 90.0166773,674.57021 88.7718777,672.76647 C88.8055586,672.760485 88.9043212,672.7288 89.0283424,672.686851 C86.4245802,671.437828 83.2082098,671.892295 81.0502525,674.050253 C78.3165825,676.783923 78.3165825,681.216077 81.0502525,683.949747 C81.1777963,684.077291 81.3090375,684.198884 81.443631,684.314527 Z" id="并行汇聚"></path>
        </g>
    </g>
</svg>