<?xml version="1.0" encoding="UTF-8" standalone="no"?>
<svg width="30px" height="30px" viewBox="0 0 30 30" version="1.1" xmlns="http://www.w3.org/2000/svg" xmlns:xlink="http://www.w3.org/1999/xlink">
    <!-- Generator: Sketch 47.1 (45422) - http://www.bohemiancoding.com/sketch -->
    <title>条件分支</title>
    <desc>Created with Sketch.</desc>
    <defs></defs>
    <g transform="scale(0.88)" id="Page-1" stroke="none" stroke-width="1" fill="none" fill-rule="evenodd">
        <g id="所有节点" transform="translate(-69.500000, -802.500000)" fill-rule="nonzero" fill="#00b0ff">
            <path d="M85.8492424,805.131371 L72.1313708,818.849242 L85.8492424,832.567114 L99.567114,818.849242 L85.8492424,805.131371 Z M85.8492424,804 L100.698485,818.849242 L85.8492424,833.698485 L71,818.849242 L85.8492424,804 Z M86.1768558,817.573321 L85.781273,817.075655 L85.5504711,817.075684 L85.6658534,816.93045 L82.5416335,813 L80,813.019921 L84.8615412,819.050156 L80,825.080392 L82.5416335,825.100313 L85.6658534,821.169863 L85.5504711,821.024629 L85.781273,821.024658 L86.1768558,820.526992 L86.5723112,821.024759 L86.8031131,821.024789 L86.6876936,821.169993 L89.8007993,825.088519 L92.372421,825.088519 L87.4929668,819.050156 L92.372421,813.011794 L89.8007993,813.011794 L86.6876936,816.930319 L86.8031131,817.075524 L86.5723112,817.075553 L86.1768558,817.573321 Z" id="条件分支"></path>
        </g>
    </g>
</svg>