<?xml version="1.0" encoding="UTF-8"?>
<svg width="40px" height="40px" viewBox="0 0 40 40" version="1.1" xmlns="http://www.w3.org/2000/svg" xmlns:xlink="http://www.w3.org/1999/xlink">
    <!-- Generator: Sketch 42 (36781) - http://www.bohemiancoding.com/sketch -->
    <title>异常结束</title>
    <desc>Created with Sketch.</desc>
    <defs></defs>
    <g id="流程设计" stroke="none" stroke-width="1" fill="none" fill-rule="evenodd">
        <g id="Group-42" transform="translate(6.000000, 6.000000)" fill="#00b0ff">
            <circle  id="sid-C923300E-349F-4487-B496-CC97A7D85FAEbg_frame" cx="14" cy="14" r="14" stroke="#00b0ff" fill="#ffffff" stroke-width="2"></circle>
            <!-- <path style="stroke-width:2" d="M14.5,28.5 C6.7680135,28.5 0.5,22.2319865 0.5,14.5 C0.5,6.7680135 6.7680135,0.5 14.5,0.5 C22.2319865,0.5 28.5,6.7680135 28.5,14.5 C28.5,22.2319865 22.2319865,28.5 14.5,28.5 Z M14.5,27.5 C21.6797017,27.5 27.5,21.6797017 27.5,14.5 C27.5,7.32029825 21.6797017,1.5 14.5,1.5 C7.32029825,1.5 1.5,7.32029825 1.5,14.5 C1.5,21.6797017 7.32029825,27.5 14.5,27.5 Z" id="Oval-3" fill-rule="nonzero"></path> -->
            <path transform="translate(-1.000000, -1.000000)" d="M13,8 L16,8 L15,18 L14,18 L13,8 Z M16,19 L16,22 L13,22 L13,19 L16,19 Z" id="！"></path>
        </g>
    </g>
</svg>