<?xml version="1.0" encoding="UTF-8"?>
<svg width="11px" height="14px" viewBox="0 0 11 14" version="1.1" xmlns="http://www.w3.org/2000/svg" xmlns:xlink="http://www.w3.org/1999/xlink">
    <!-- Generator: Sketch 43.2 (39069) - http://www.bohemiancoding.com/sketch -->
    <title>@1xShape</title>
    <desc>Created with Sketch.</desc>
    <defs></defs>
    <g id="流程设计" stroke="none" stroke-width="1" fill="none" fill-rule="evenodd">
        <path d="M8.93753222,5.79314202 C8.93753222,5.39320984 8.62918428,5.06910463 8.24982116,5.06910463 C7.87022515,5.06910463 7.56232635,5.39319264 7.56232635,5.79314202 L7.56232635,11.827905 C7.56232635,12.2274072 7.87024178,12.5521489 8.24982116,12.5521489 C8.62918428,12.5521489 8.93753222,12.2280609 8.93753222,11.827905 L8.93753222,5.79314202 Z M6.18751976,5.79314202 C6.18751976,5.39320984 5.87938807,5.06910463 5.50002495,5.06910463 C5.12022932,5.06910463 4.81253015,5.39319264 4.81253015,5.79314202 L4.81253015,11.827905 C4.81253015,12.2274072 5.12022932,12.5521489 5.50002495,12.5521489 C5.87938807,12.5521489 6.18751976,12.2280609 6.18751976,11.827905 L6.18751976,5.79314202 Z M3.43752391,5.79314202 C3.43752391,5.39320984 3.12939223,5.06910463 2.75002911,5.06910463 C2.37044973,5.06910463 2.0625343,5.39319264 2.0625343,5.79314202 L2.0625343,11.827905 C2.0625343,12.2274072 2.37044973,12.5521489 2.75002911,12.5521489 C3.12917597,12.5521489 3.43752391,12.2280609 3.43752391,11.827905 L3.43752391,5.79314202 Z M10.3125385,4.34508443 L10.3125385,5.793142 L10.3125385,13.2761862 C10.3125385,13.6756883 10.0044068,14 9.62504366,14 L1.37500625,14 C0.99542687,14 0.687511438,13.6754647 0.687511438,13.2761862 L0.687511438,5.79314202 L0.687511438,4.34508445 L0.687511438,3.62104706 L10.3125385,3.62104706 L10.3125385,4.34508443 Z M0,2.17276585 C0,1.7730573 0.307699175,1.44807478 0.687494808,1.44807478 L4.12500208,1.44807478 L4.12500208,0.724261017 C4.12500208,0.324105211 4.43291751,0 4.81249688,0 L6.18750312,0 C6.56664998,0 6.87499792,0.324088015 6.87499792,0.724261017 L6.87499792,1.44807478 L10.3125052,1.44807478 C10.6918849,1.44807478 11,1.77216279 11,2.17276585 L11,2.89702687 L0,2.89702687 L0,2.17276585 Z" id="Shape" fill="#E52F2F" fill-rule="nonzero"></path>
    </g>
</svg>