<?xml version="1.0" encoding="UTF-8"?>
<svg width="22px" height="22px" viewBox="0 0 22 22" version="1.1" xmlns="http://www.w3.org/2000/svg" xmlns:xlink="http://www.w3.org/1999/xlink">
    <!-- Generator: Sketch 42 (36781) - http://www.bohemiancoding.com/sketch -->
    <title>编辑</title>
    <desc>Created with Sketch.</desc>
    <defs></defs>
    <g id="流程专家" stroke="none" stroke-width="1" fill="none" fill-rule="evenodd">
        <path d="M10.7835804,12.2953806 L9.73023818,13.3022546 C9.37916873,13.6254681 9.06317409,13.9216818 8.78230783,14.1909716 C8.50144156,14.4603372 8.26883162,14.6819953 8.08449138,14.8560343 C7.90019129,15.0299975 7.79045699,15.1294808 7.75534203,15.1543327 C7.66756798,15.2289515 7.56663918,15.3076007 7.45255566,15.390533 C7.33841862,15.4733895 7.2199725,15.5397075 7.09704332,15.5894113 C6.9741543,15.6474285 6.79425695,15.71784 6.55723088,15.8006965 C6.32024495,15.883553 6.07227221,15.9643374 5.81336618,16.0431255 C5.55442001,16.1217621 5.3086821,16.1901522 5.07609892,16.2482452 C4.84347561,16.3061866 4.6701088,16.343496 4.55605204,16.3601102 C4.31903933,16.3849748 4.1610621,16.3518094 4.0820534,16.2606395 C4.00304472,16.1694696 3.98108447,16.0162016 4.01621283,15.8006965 C4.03373016,15.6846621 4.07545596,15.5168645 4.14126978,15.2972784 C4.20711036,15.077705 4.27735369,14.8498055 4.35195963,14.6136053 C4.42657894,14.377405 4.49893667,14.1599036 4.56918,13.9610127 C4.63943672,13.7621977 4.69644502,13.6254807 4.74036551,13.5508492 C4.79297106,13.4348275 4.8522945,13.3291912 4.91813507,13.2338645 C4.98394889,13.1386137 5.07832038,13.0329774 5.20116926,12.9168798 C5.25381496,12.8671761 5.37675752,12.7491454 5.56984973,12.5626489 C5.7629018,12.3762282 6.00431725,12.1462567 6.29394888,11.872747 L7.2550741,10.965331 L8.32149072,9.95858334 L11.1521672,7.28605193 L13.6141899,9.62291235 L10.7835804,12.2953806 Z M14.7993637,8.23016016 C14.7292006,8.29649081 14.66336,8.35449538 14.6019088,8.40419918 L12.1399396,6.07973311 C12.245231,5.98858848 12.3703281,5.87880809 12.5151774,5.75039195 C12.6599865,5.62190001 12.7806407,5.52038253 12.8772069,5.44582687 C13.0000959,5.35469487 13.1273475,5.2904868 13.2590421,5.25313949 C13.3906965,5.21585534 13.5201027,5.19927899 13.6474346,5.20339781 C13.7746996,5.20751662 13.8975351,5.22621556 14.0160749,5.25936824 C14.1345612,5.29253356 14.2376579,5.3297798 14.3254989,5.37124593 C14.5097454,5.46237794 14.7137977,5.62191262 14.937669,5.84979947 C15.161527,6.07768632 15.3348536,6.31593339 15.4577427,6.5645533 C15.492871,6.63910895 15.5213886,6.72608423 15.5433087,6.82556757 C15.5652288,6.92501301 15.5762289,7.02860253 15.5762289,7.13628561 C15.5762289,7.24406975 15.5542286,7.35174019 15.510375,7.45949907 C15.4664545,7.56718215 15.3962112,7.67080957 15.2997253,7.77029292 C15.194367,7.86970045 15.1000624,7.95671363 15.0167045,8.03126929 C14.9332529,8.10590075 14.8608952,8.17221876 14.7993637,8.23016016 Z M10.7323499,14.9101121 L17.6181904,14.9101121 L17.6181904,16.0830444 L9.47826087,16.0830444 L10.7323499,14.9101121 Z" id="Combined-Shape" fill="#00b1fb"></path>
    </g>
</svg>