<?xml version="1.0" encoding="UTF-8"?>
<svg width="22px" height="22px" viewBox="0 0 22 22" version="1.1" xmlns="http://www.w3.org/2000/svg" xmlns:xlink="http://www.w3.org/1999/xlink">
    <!-- Generator: Sketch 42 (36781) - http://www.bohemiancoding.com/sketch -->
    <title>删除</title>
    <desc>Created with Sketch.</desc>
    <defs></defs>
    <g id="流程专家" stroke="none" stroke-width="1" fill="none" fill-rule="evenodd">
        <path d="M15.6645501,5.40569879 L13.3994978,5.40569879 L12.0238807,4 L8.98763359,4 L7.61201646,5.40569879 L5.34694553,5.40569879 C5.16265724,5.42469471 4.98266385,5.67031208 5.0013373,5.90293623 L5.0013373,6.79240163 L16,6.79240163 L16,5.90293623 C15.9999813,5.71060243 15.9279018,5.42469471 15.6645501,5.40569879 L15.6645501,5.40569879 Z M9.27262782,4.70284938 L11.7393534,4.70284938 L12.4271526,5.40569877 L8.58480991,5.40569879 L9.27262782,4.70284938 L9.27262782,4.70284938 Z M5.69223631,17.7981303 C5.69223631,17.990483 5.81465945,18 6.03474475,18 L14.9767322,18 C15.1809637,18 15.3277371,17.990483 15.3277371,17.7981303 L15.3277371,7.49525101 L5.69223631,7.49525101 L5.69223631,17.7981303 L5.69223631,17.7981303 Z M11.2009044,9.60379918 L11.8731486,9.60379918 L11.8731486,15.1886024 L11.2009044,15.1886024 L11.2009044,9.60379918 L11.2009044,9.60379918 Z M9.12815133,9.60379918 L9.81906901,9.60379918 L9.81906901,15.1886024 L9.12815133,15.1886024 L9.12815133,9.60379918 L9.12815133,9.60379918 Z" id="Shape-Copy-26" fill="#333333"></path>
    </g>
</svg>